# xmcd CD database file
#
# Track frame offsets:
#	150
#	13511
#	25158
#	38762
#	50433
#	63034
#	79899
#	90100
#	104467
#	117908
#	132077
#	145114
#	158918
#	174032
#	187540
#	198277
#	211552
#	224052
#	236173
#	249862
#	264039
#	277850
#	290530
#	303200
#
# Disc length: 4215 seconds
#
# Revision: 0
# Processed by: cddbd v1.5.2PL0 Copyright (c) Steve Scherf et al.
# Submitted via: CDex 1.51
#
DISCID=2c107518
DTITLE=Christine and the Stackyard Stompers - SPHINX
DYEAR=1999
DGENRE=Jazz
TTITLE0=Copenhagen
TTITLE1=Room Rent Blues
TTITLE2=Everybody Loves Somebody
TTITLE3=Jimtown Blues
TTITLE4=Sphinx
TTITLE5=I Left My Sugar Standing In The Rain
TTITLE6=She's Crying For Me
TTITLE7=Wild Man Blues
TTITLE8=Cushion Foot Stomp
TTITLE9=Melancholy
TTITLE10=Brotherly Love
TTITLE11=Doctor Jazz
TTITLE12=Tin Roof Blues
TTITLE13=When Erastus Plays His Old Kazoo
TTITLE14=Georgia Swing
TTITLE15=Georgia Bo Bo
TTITLE16=Static Strut
TTITLE17=Riverside Blues
TTITLE18=I'd Do Anything For You
TTITLE19=Kiss Me Sweet
TTITLE20=Steamboat Stomp
TTITLE21=Japanese Sandman
TTITLE22=Someday Sweetheart
TTITLE23=Shim-Me-Sha-Wabble
EXTD=YEAR: 1999
EXTT0=
EXTT1=
EXTT2=
EXTT3=
EXTT4=
EXTT5=
EXTT6=
EXTT7=
EXTT8=
EXTT9=
EXTT10=
EXTT11=
EXTT12=
EXTT13=
EXTT14=
EXTT15=
EXTT16=
EXTT17=
EXTT18=
EXTT19=
EXTT20=
EXTT21=
EXTT22=
EXTT23=
PLAYORDER=
